<svg id="efficience-monoogram" xmlns="http://www.w3.org/2000/svg" xmlns:xlink="http://www.w3.org/1999/xlink" width="32" height="32" viewBox="0 0 32 32">
  <defs>
    <linearGradient id="linear-gradient" x1="0.229" y1="0.107" x2="0.805" y2="0.914" gradientUnits="objectBoundingBox">
      <stop offset="0" stop-color="#246052"/>
      <stop offset="1" stop-color="#43bb9b"/>
    </linearGradient>
    <linearGradient id="linear-gradient-2" x1="1" y1="0.475" x2="0.388" y2="0.19" xlink:href="#linear-gradient"/>
    <linearGradient id="linear-gradient-3" x1="0.305" y1="0.052" x2="0.707" y2="0.724" xlink:href="#linear-gradient"/>
  </defs>
  <path id="Path_27488" data-name="Path 27488" d="M58.32,125.492a6.606,6.606,0,0,0-2.266,5.007,7.486,7.486,0,0,0,7.436,7.536c.465,0,2.241-.331,2.683-.413a4.212,4.212,0,0,1,.475-.027,4.275,4.275,0,0,1,4.235,4.314,4.327,4.327,0,0,1-2.18,3.773,10.409,10.409,0,0,1-5.213,1.075,15.323,15.323,0,0,1-10.828-4.275c-.36-1.353-.859,1.225-.54-4.466s2.813-9.06,6.2-12.525" transform="translate(-47.629 -114.758)" fill="url(#linear-gradient)"/>
  <path id="Path_27489" data-name="Path 27489" d="M23.542,37.785a11.005,11.005,0,0,0-2.227-5.034A10.753,10.753,0,0,0,12.049,28.2c-3.863,0-7.107,1.275-9.172,4.194A16.426,16.426,0,0,0,5.032,53.51a16.492,16.492,0,0,1-.544-4.186c0-4.653,2.774-9.468,5.865-12.432a7.379,7.379,0,0,1,5.653-2.64c3.969.16,5.986,2.592,7.421,7.068a30.091,30.091,0,0,0,.114-3.536" transform="translate(0 -25.785)" fill="url(#linear-gradient-2)"/>
  <path id="Path_27490" data-name="Path 27490" d="M30,7.129A11.616,11.616,0,0,1,39.52,2.412a11.792,11.792,0,0,1,8.922,4.254,10.642,10.642,0,0,1,2.513,6.882c0,.778-.013,1.528-.055,1.986a15.376,15.376,0,0,0-1.331-3.188l-5.6-.069a3.982,3.982,0,0,0,0,7.964H55.542a3.956,3.956,0,0,0,3.929-3.982l-.007.5q.007-.248.007-.5A16.152,16.152,0,0,0,43.429,0C38.04,0,32.359,2.961,30,7.129" transform="translate(-27.471)" fill="url(#linear-gradient-3)"/>
</svg>
